<svg width="60" height="29" viewBox="0 0 60 29" fill="none" xmlns="http://www.w3.org/2000/svg">
<path d="M12.496 28.16C9.95733 28.16 7.74933 27.7013 5.872 26.784C3.99467 25.8453 2.55467 24.5227 1.552 22.816C0.549333 21.1093 0.0480001 19.1253 0.0480001 16.864C0.0480001 13.728 0.634667 10.944 1.808 8.512C3.00267 6.08 4.61333 4.20267 6.64 2.88C8.66667 1.536 10.9173 0.863998 13.392 0.863998C15.696 0.863998 17.4453 1.46133 18.64 2.656C19.8347 3.82933 20.432 5.38667 20.432 7.328C20.432 8.62933 20.1973 9.67467 19.728 10.464C19.28 11.2533 18.6293 11.648 17.776 11.648C17.1787 11.648 16.7093 11.5093 16.368 11.232C16.0267 10.9547 15.856 10.5493 15.856 10.016C15.856 9.824 15.8987 9.472 15.984 8.96C16.112 8.32 16.176 7.808 16.176 7.424C16.176 5.48267 15.1413 4.512 13.072 4.512C11.664 4.512 10.32 4.97067 9.04 5.888C7.76 6.80533 6.72533 8.16 5.936 9.952C5.14667 11.7227 4.752 13.8347 4.752 16.288C4.752 18.848 5.46667 20.832 6.896 22.24C8.32533 23.6267 10.4373 24.32 13.232 24.32C14.6187 24.32 16.016 24.1493 17.424 23.808C18.8533 23.4453 20.432 22.9013 22.16 22.176C22.48 22.048 22.7467 21.984 22.96 21.984C23.3013 21.984 23.5573 22.112 23.728 22.368C23.8987 22.624 23.984 22.9547 23.984 23.36C23.984 24.6613 23.28 25.6213 21.872 26.24C20.3573 26.9013 18.7787 27.392 17.136 27.712C15.5147 28.0107 13.968 28.16 12.496 28.16ZM25.4095 28.16C24.0868 28.16 23.0308 27.68 22.2415 26.72C21.4522 25.76 21.0575 24.5013 21.0575 22.944C21.0575 21.2373 21.4522 19.6267 22.2415 18.112C23.0308 16.576 24.0762 15.3493 25.3775 14.432C26.7002 13.4933 28.0975 13.024 29.5695 13.024C30.0388 13.024 30.3482 13.12 30.4975 13.312C30.6682 13.4827 30.8068 13.8027 30.9135 14.272C31.3615 14.1867 31.8308 14.144 32.3215 14.144C33.3668 14.144 33.8895 14.5173 33.8895 15.264C33.8895 15.712 33.7295 16.7787 33.4095 18.464C32.9188 20.9173 32.6735 22.624 32.6735 23.584C32.6735 23.904 32.7482 24.16 32.8975 24.352C33.0682 24.544 33.2815 24.64 33.5375 24.64C33.9428 24.64 34.4335 24.384 35.0095 23.872C35.5855 23.3387 36.3642 22.4853 37.3455 21.312C37.6015 21.0133 37.8895 20.864 38.2095 20.864C38.4868 20.864 38.7002 20.992 38.8495 21.248C39.0202 21.504 39.1055 21.856 39.1055 22.304C39.1055 23.1573 38.9028 23.8187 38.4975 24.288C37.6228 25.376 36.6948 26.2933 35.7135 27.04C34.7322 27.7867 33.7828 28.16 32.8655 28.16C32.1615 28.16 31.5108 27.9253 30.9135 27.456C30.3375 26.9653 29.9002 26.304 29.6015 25.472C28.4922 27.264 27.0948 28.16 25.4095 28.16ZM26.5615 24.928C27.0308 24.928 27.4788 24.6507 27.9055 24.096C28.3322 23.5413 28.6415 22.8053 28.8335 21.888L30.0175 16C29.1215 16.0213 28.2895 16.3627 27.5215 17.024C26.7748 17.664 26.1775 18.5173 25.7295 19.584C25.2815 20.6507 25.0575 21.7813 25.0575 22.976C25.0575 23.6373 25.1855 24.128 25.4415 24.448C25.7188 24.768 26.0922 24.928 26.5615 24.928ZM50.7768 20.864C51.0541 20.864 51.2674 20.992 51.4167 21.248C51.5874 21.504 51.6728 21.856 51.6728 22.304C51.6728 23.1573 51.4701 23.8187 51.0648 24.288C50.1474 25.4187 49.1448 26.3467 48.0568 27.072C46.9688 27.7973 45.7208 28.16 44.3128 28.16C39.9608 28.16 37.7848 25.0987 37.7848 18.976C37.7848 18.0373 37.8168 17.088 37.8808 16.128H36.6328C35.9928 16.128 35.5554 16.0107 35.3208 15.776C35.1074 15.5413 35.0008 15.168 35.0008 14.656C35.0008 13.4613 35.4808 12.864 36.4408 12.864H38.2648C38.6274 10.5173 39.1821 8.37333 39.9288 6.432C40.6754 4.49067 41.5714 2.944 42.6168 1.792C43.6834 0.639999 44.8248 0.0639992 46.0408 0.0639992C46.9368 0.0639992 47.6408 0.458666 48.1528 1.248C48.6648 2.03733 48.9208 3.02933 48.9208 4.224C48.9208 7.53067 47.5341 10.4107 44.7608 12.864H48.3448C48.6861 12.864 48.9314 12.9387 49.0808 13.088C49.2301 13.2373 49.3048 13.5147 49.3048 13.92C49.3048 15.392 48.0994 16.128 45.6888 16.128H41.7848C41.7421 17.1947 41.7208 18.0267 41.7208 18.624C41.7208 20.8427 41.9768 22.4 42.4888 23.296C43.0221 24.192 43.8541 24.64 44.9848 24.64C45.9021 24.64 46.7128 24.3627 47.4168 23.808C48.1208 23.2533 48.9528 22.4213 49.9128 21.312C50.1688 21.0133 50.4568 20.864 50.7768 20.864ZM45.1768 3.136C44.8568 3.136 44.4941 3.54133 44.0888 4.352C43.7048 5.14133 43.3314 6.25067 42.9688 7.68C42.6274 9.088 42.3394 10.656 42.1048 12.384C43.3634 11.296 44.3021 10.08 44.9208 8.736C45.5608 7.37067 45.8808 6.13333 45.8808 5.024C45.8808 3.76533 45.6461 3.136 45.1768 3.136ZM55.0193 28.864C53.9099 28.864 53.0566 28.608 52.4593 28.096C51.8833 27.584 51.5953 27.008 51.5953 26.368C51.5953 25.8133 51.7979 25.3333 52.2033 24.928C52.6086 24.5227 53.2059 24.32 53.9953 24.32C54.2726 24.32 54.5926 24.352 54.9553 24.416C55.3393 24.4587 55.6273 24.4907 55.8193 24.512C55.7979 23.9573 55.6699 23.4347 55.4353 22.944C55.2219 22.4533 54.9446 21.984 54.6033 21.536C54.2619 21.0667 53.9419 20.6613 53.6433 20.32C52.9819 21.5787 52.3206 22.624 51.6593 23.456C51.0193 24.288 50.3153 25.0773 49.5473 25.824C49.1633 26.208 48.7579 26.4 48.3313 26.4C47.9899 26.4 47.7126 26.2827 47.4992 26.048C47.2859 25.792 47.1792 25.4827 47.1792 25.12C47.1792 24.6933 47.3286 24.2987 47.6273 23.936L48.0433 23.424C49.2166 21.9733 50.1019 20.7787 50.6993 19.84C51.0833 19.2213 51.4673 18.4853 51.8513 17.632C52.2566 16.7787 52.7793 15.616 53.4193 14.144C53.8246 13.2053 54.6673 12.736 55.9473 12.736C56.5446 12.736 56.9606 12.7893 57.1953 12.896C57.4299 13.0027 57.5473 13.1733 57.5473 13.408C57.5473 13.536 57.5046 13.7387 57.4193 14.016C57.3339 14.2933 57.2166 14.5707 57.0673 14.848C56.6833 15.616 56.4913 16.2667 56.4913 16.8C56.4913 17.12 56.5979 17.472 56.8113 17.856C57.0459 18.24 57.3979 18.72 57.8673 19.296C58.5499 20.192 59.0619 20.96 59.4033 21.6C59.7659 22.2187 59.9473 22.9013 59.9473 23.648C59.9473 24.544 59.7339 25.3973 59.3073 26.208C58.9019 26.9973 58.3259 27.6373 57.5793 28.128C56.8326 28.6187 55.9793 28.864 55.0193 28.864Z" fill="black"/>
</svg>
